<svg width="276" height="61" viewBox="0 0 276 61" fill="none" xmlns="http://www.w3.org/2000/svg">
<path d="M109.592 9.984C108.013 9.17333 106.285 8.46933 104.408 7.872C102.531 7.27466 100.696 6.976 98.904 6.976C96.4293 6.976 94.4453 7.552 92.952 8.704C91.5013 9.856 90.776 11.392 90.776 13.312C90.776 14.7627 91.2453 16 92.184 17.024C93.1227 18.0053 94.36 18.8587 95.896 19.584C97.432 20.3093 99.032 20.992 100.696 21.632C102.147 22.1867 103.576 22.8053 104.984 23.488C106.392 24.1707 107.651 25.024 108.76 26.048C109.912 27.072 110.808 28.3307 111.448 29.824C112.131 31.3173 112.472 33.1733 112.472 35.392C112.472 37.824 111.853 40.0427 110.616 42.048C109.421 44.0533 107.693 45.632 105.432 46.784C103.171 47.936 100.483 48.512 97.368 48.512C95.32 48.512 93.3573 48.2773 91.48 47.808C89.6453 47.3387 87.9387 46.7413 86.36 46.016C84.7813 45.248 83.3733 44.4587 82.136 43.648L84.888 38.784C85.912 39.5093 87.0853 40.2133 88.408 40.896C89.7307 41.536 91.1173 42.0693 92.568 42.496C94.0187 42.88 95.4267 43.072 96.792 43.072C98.2427 43.072 99.672 42.816 101.08 42.304C102.531 41.7493 103.725 40.9173 104.664 39.808C105.603 38.6987 106.072 37.2267 106.072 35.392C106.072 33.8133 105.645 32.512 104.792 31.488C103.981 30.4213 102.893 29.5253 101.528 28.8C100.163 28.032 98.712 27.3493 97.176 26.752C95.7253 26.1973 94.2533 25.6 92.76 24.96C91.2667 24.2773 89.88 23.4667 88.6 22.528C87.32 21.5467 86.296 20.352 85.528 18.944C84.76 17.536 84.376 15.8293 84.376 13.824C84.376 11.392 84.952 9.28 86.104 7.488C87.2987 5.65333 88.92 4.224 90.968 3.2C93.016 2.13333 95.3627 1.55733 98.008 1.472C100.995 1.472 103.619 1.83466 105.88 2.56C108.184 3.28533 110.211 4.18133 111.96 5.248L109.592 9.984ZM137.05 48.64C135.045 48.64 133.103 48.1707 131.226 47.232C129.391 46.2933 127.962 45.0347 126.938 43.456L127.322 41.6V60.736H121.434V21.12H126.554L127.386 27.904L126.746 26.048C128.026 24.4267 129.647 23.0827 131.61 22.016C133.573 20.9493 135.77 20.416 138.202 20.416C140.677 20.416 142.895 21.0133 144.858 22.208C146.863 23.4027 148.442 25.0667 149.594 27.2C150.746 29.3333 151.322 31.8293 151.322 34.688C151.322 37.5467 150.703 40.0213 149.466 42.112C148.229 44.2027 146.522 45.824 144.346 46.976C142.213 48.0853 139.781 48.64 137.05 48.64ZM135.898 43.904C137.605 43.904 139.162 43.52 140.57 42.752C142.021 41.9413 143.173 40.8533 144.026 39.488C144.879 38.08 145.306 36.5013 145.306 34.752C145.306 32.96 144.901 31.3813 144.09 30.016C143.279 28.608 142.191 27.4987 140.826 26.688C139.503 25.8773 138.01 25.472 136.346 25.472C134.81 25.472 133.423 25.7707 132.186 26.368C130.949 26.9653 129.925 27.7973 129.114 28.864C128.303 29.888 127.727 31.0827 127.386 32.448V36.864C127.599 38.2293 128.111 39.4453 128.922 40.512C129.733 41.5787 130.735 42.4107 131.93 43.008C133.167 43.6053 134.49 43.904 135.898 43.904ZM170.38 48.64C167.905 48.64 165.644 48.1067 163.595 47.04C161.59 45.9733 159.99 44.416 158.796 42.368C157.644 40.2773 157.068 37.7387 157.068 34.752C157.068 31.808 157.686 29.2693 158.924 27.136C160.161 24.96 161.804 23.296 163.852 22.144C165.942 20.992 168.225 20.416 170.7 20.416C173.174 20.416 175.265 20.992 176.972 22.144C178.678 23.2533 179.98 24.576 180.876 26.112L180.492 27.136L181.068 21.504H186.572V48H180.62V41.088L181.26 42.624C181.089 43.0507 180.705 43.6053 180.108 44.288C179.553 44.928 178.785 45.5893 177.804 46.272C176.865 46.9547 175.777 47.5307 174.54 48C173.302 48.4267 171.916 48.64 170.38 48.64ZM171.98 43.712C173.473 43.712 174.817 43.4347 176.012 42.88C177.206 42.3253 178.188 41.5573 178.956 40.576C179.766 39.552 180.321 38.336 180.62 36.928V31.744C180.278 30.464 179.681 29.3547 178.828 28.416C177.974 27.4347 176.95 26.688 175.756 26.176C174.561 25.6213 173.238 25.344 171.788 25.344C170.209 25.344 168.758 25.728 167.436 26.496C166.113 27.264 165.046 28.3307 164.236 29.696C163.468 31.0613 163.084 32.6613 163.084 34.496C163.084 36.2027 163.489 37.76 164.3 39.168C165.11 40.576 166.198 41.6853 167.564 42.496C168.929 43.3067 170.401 43.712 171.98 43.712ZM218.376 45.568C217.181 46.5067 215.752 47.2533 214.088 47.808C212.424 48.3627 210.76 48.64 209.096 48.64C206.194 48.64 203.656 48.064 201.48 46.912C199.304 45.76 197.597 44.16 196.36 42.112C195.165 40.0213 194.568 37.568 194.568 34.752C194.568 31.936 195.208 29.4827 196.488 27.392C197.81 25.3013 199.517 23.7013 201.608 22.592C203.741 21.44 206.024 20.864 208.456 20.864C210.589 20.864 212.488 21.1627 214.152 21.76C215.858 22.3573 217.309 23.168 218.504 24.192L215.56 28.032C214.792 27.4347 213.853 26.9013 212.744 26.432C211.634 25.9627 210.376 25.728 208.968 25.728C207.432 25.728 206.002 26.1333 204.68 26.944C203.4 27.712 202.376 28.7787 201.608 30.144C200.882 31.5093 200.52 33.0453 200.52 34.752C200.52 36.3733 200.904 37.888 201.672 39.296C202.44 40.6613 203.506 41.7493 204.872 42.56C206.237 43.328 207.794 43.712 209.544 43.712C210.696 43.712 211.741 43.5413 212.68 43.2C213.661 42.8587 214.536 42.3893 215.304 41.792L218.376 45.568ZM238.347 48.64C235.318 48.64 232.715 48.0427 230.539 46.848C228.363 45.6107 226.678 43.9467 225.483 41.856C224.331 39.7227 223.755 37.2907 223.755 34.56C223.755 31.9573 224.416 29.5893 225.739 27.456C227.062 25.3227 228.832 23.616 231.051 22.336C233.27 21.056 235.744 20.416 238.475 20.416C241.974 20.416 244.875 21.44 247.179 23.488C249.483 25.536 251.04 28.352 251.851 31.936L230.027 39.616L228.619 36.096L246.539 29.568L245.259 30.4C244.747 28.992 243.894 27.776 242.699 26.752C241.504 25.6853 239.947 25.152 238.027 25.152C236.406 25.152 234.955 25.5573 233.675 26.368C232.395 27.136 231.392 28.2027 230.667 29.568C229.942 30.9333 229.579 32.4907 229.579 34.24C229.579 36.0747 229.963 37.696 230.731 39.104C231.499 40.4693 232.544 41.5573 233.867 42.368C235.232 43.136 236.768 43.52 238.475 43.52C239.627 43.52 240.736 43.3067 241.803 42.88C242.912 42.4533 243.936 41.8987 244.875 41.216L247.627 45.632C246.304 46.528 244.811 47.2533 243.147 47.808C241.526 48.3627 239.926 48.64 238.347 48.64ZM264.621 21.504L265.197 29.184L264.877 28.16C265.56 26.5387 266.541 25.1733 267.821 24.064C269.144 22.912 270.509 22.0373 271.917 21.44C273.368 20.8 274.626 20.48 275.693 20.48L275.373 26.368C273.368 26.24 271.597 26.624 270.061 27.52C268.568 28.416 267.373 29.6107 266.477 31.104C265.624 32.5973 265.197 34.1973 265.197 35.904V48H259.309V21.504H264.621Z" fill="white"/>
<rect y="45" width="42" height="15" fill="#FE7F7F"/>
<rect x="16" width="42" height="16" transform="rotate(90 16 0)" fill="#7FC9FE"/>
<rect x="61" y="16" width="42" height="16" transform="rotate(-180 61 16)" fill="#B7FE7F"/>
<rect x="45" y="60" width="41" height="16" transform="rotate(-90 45 60)" fill="#FFD78A"/>
<rect x="19" y="19" width="23" height="23" fill="white"/>
</svg>
